# xmcd
#
# Track frame offsets:
#	150
#	3190
#	23177
#	42645
#	62980
#	79050
#	98775
#	117180
#	134435
#	155260
#	174090
#	193455
#	214152
#	234225
#	252950
#	273585
#	291932
#	314620
#
# Disc length: 4454
#
# Revision: 2
# Processed by: cddbd v1.5.1PL0 Copyright (c) Steve Scherf et al.
# Submitted via: CDex 1.40Release
# Normalized: r1:TDELIM( - ),TSWAP
#
DISCID=03116412
DTITLE=featuringTheSongsOfPhilCollins - Urban Renewal
DYEAR=2001
DGENRE=R&B
TTITLE0=Brandy And Ray J - Ray J Prelude
TTITLE1=Brandy And Ray J - Another Day In Paradice (R&D Version)
TTITLE2=Ol'dirty Bastard - Sussudio
TTITLE3=Deborah Cox - Something Happened On The Way To Heaven
TTITLE4=Dane Bowers Feat.Kelis - This Must Be Love
TTITLE5=Lil'kim Feat.Phil Collins - In The Air Tonite
TTITLE6=Coko - Gotta Hold Over Me(Easy Lover)
TTITLE7=Kelis - I Don't Care Anyone
TTITLE8=Joe - Can't Turn Back The Years
TTITLE9=Debelah Morgan - Do You Remember(Stargateremix)
TTITLE10=Montell Jordan - Against All Odds
TTITLE11=Changing Faces - One More Night
TTITLE12=Tq - All Of My Life
TTITLE13=Brian Mcknight - I Wish It Would Rain Down
TTITLE14=Malik Pendleton - Take Me Home
TTITLE15=Chico Debarge - Separate Lives
TTITLE16=The Tony Rich Project - Long Long Way To Go
TTITLE17=Brandy And Ray J - Another Day In Paradice(Blacklegendshortremix)
EXTD=YEAR: 2001 ID3G: 14
EXTT0=
EXTT1=
EXTT2=
EXTT3=
EXTT4=
EXTT5=
EXTT6=
EXTT7=
EXTT8=
EXTT9=
EXTT10=
EXTT11=
EXTT12=
EXTT13=
EXTT14=
EXTT15=
EXTT16=
EXTT17=
PLAYORDER=
